<?xml version="1.0" encoding="UTF-8"?>
<svg version="1.1" xmlns="http://www.w3.org/2000/svg" width="388" height="380">
<path d="M0 0 C128.04 0 256.08 0 388 0 C388 125.4 388 250.8 388 380 C259.96 380 131.92 380 0 380 C0 254.6 0 129.2 0 0 Z " fill="#09142A" transform="translate(0,0)"/>
<path d="M0 0 C14.85 0 29.7 0 45 0 C45 0.66 45 1.32 45 2 C45.556875 2.061875 46.11375 2.12375 46.6875 2.1875 C50.16420306 3.40904432 52.37202406 4.69216044 54 8 C54.73231075 14.25792825 55.13460085 20.39071427 52 26 C52.00156224 28.59117313 52.00156224 28.59117313 53 31 C54.31787285 32.02028865 55.65210653 33.01971384 57 34 C59.88949761 39.72794403 59.6300906 45.73847465 59 52 C56.69695821 57.13755475 54.17679951 58.99486152 49 61 C45.25335075 61.4335146 41.53398037 61.42055683 37.765625 61.3984375 C36.15406525 61.40274277 36.15406525 61.40274277 34.50994873 61.40713501 C32.24734976 61.40917094 29.98473299 61.40367414 27.72216797 61.39111328 C24.2479766 61.37499061 20.77493757 61.39101084 17.30078125 61.41015625 C15.10155992 61.40817497 12.90233932 61.40433368 10.703125 61.3984375 C9.66045471 61.40451019 8.61778442 61.41058289 7.54351807 61.4168396 C6.58201843 61.40738312 5.6205188 61.39792664 4.62988281 61.38818359 C3.78194153 61.38579681 2.93400024 61.38341003 2.06036377 61.38095093 C1.38044373 61.25523712 0.70052368 61.12952332 0 61 C-2.21530152 57.67704772 -2.25224134 56.63633937 -2.25878906 52.76586914 C-2.26509338 51.69788589 -2.27139771 50.62990265 -2.27789307 49.52955627 C-2.2738446 48.37640427 -2.26979614 47.22325226 -2.265625 46.03515625 C-2.26753845 44.85030136 -2.2694519 43.66544647 -2.27142334 42.44468689 C-2.27278528 39.93716215 -2.26908825 37.42963036 -2.26074219 34.92211914 C-2.25005255 31.08138181 -2.26063263 27.24111326 -2.2734375 23.40039062 C-2.27211572 20.9661448 -2.26955295 18.53189927 -2.265625 16.09765625 C-2.26967346 14.94652847 -2.27372192 13.7954007 -2.27789307 12.60939026 C-2.26843658 11.00268715 -2.26843658 11.00268715 -2.25878906 9.36352539 C-2.25719788 8.42215225 -2.25560669 7.48077911 -2.25396729 6.51087952 C-2 4 -2 4 0 0 Z " fill="#F3F3F4" transform="translate(176,165)"/>
<path d="M0 0 C10.89 0 21.78 0 33 0 C33 8 33 8 31.26953125 10.484375 C26.16512473 12.85057539 21.23416952 12.41857207 15.6875 12.25 C14.00430664 12.22292969 14.00430664 12.22292969 12.28710938 12.1953125 C9.52437268 12.14828719 6.76207638 12.07654715 4 12 C4 16.29 4 20.58 4 25 C6.03542969 24.95359375 8.07085937 24.9071875 10.16796875 24.859375 C12.15045209 24.83155067 14.13294037 24.80387227 16.11547852 24.78027344 C17.48800023 24.7602201 18.86043717 24.73296972 20.23266602 24.69824219 C22.21072044 24.64945448 24.18941119 24.62911124 26.16796875 24.609375 C27.35672607 24.58842773 28.5454834 24.56748047 29.77026367 24.54589844 C33.78717456 25.1106769 35.38988716 25.88298856 38 29 C38 31.64 38 34.28 38 37 C25.46 37 12.92 37 0 37 C0 24.79 0 12.58 0 0 Z " fill="#1F293D" transform="translate(185,177)"/>
<path d="M0 0 C3.29054233 0.04108043 6.57944494 0.09473747 9.86914062 0.17822266 C11.28984127 0.20999914 12.71081844 0.23124215 14.13183594 0.24169922 C16.1817979 0.25697073 18.22882498 0.30439479 20.27807617 0.35888672 C22.12236206 0.39199951 22.12236206 0.39199951 24.00390625 0.42578125 C27.19604492 1.10107422 27.19604492 1.10107422 29.62841797 3.27246094 C31.19604492 6.10107422 31.19604492 6.10107422 31.19604492 12.10107422 C19.64604492 12.10107422 8.09604492 12.10107422 -3.80395508 12.10107422 C-3.80395508 0.13712124 -3.80395508 0.13712124 0 0 Z " fill="#0B162C" transform="translate(190.803955078125,200.89892578125)"/>
<path d="M0 0 C5.57894737 3.15789474 5.57894737 3.15789474 7 6 C7.55358359 10.05961302 7.12772011 11.77751981 5.0625 15.375 C2.70092403 17.93899677 0.89459225 18.46526636 -2.5625 18.625 C-5.4544 18.393648 -6.97062195 18.01576383 -9.5625 16.625 C-11.81486733 12.5119814 -11.87316163 8.5708113 -11 4 C-7.80120064 0.04854197 -4.97250978 -0.81183833 0 0 Z " fill="#3284E0" transform="translate(205,54)"/>
<path d="M0 0 C3.45175452 0.05587372 4.23951105 0.36778885 7.25 2.4375 C9.7824171 6.15698762 9.94849726 7.951184 9.25 12.375 C7.75 15.8125 7.75 15.8125 5.25 18.375 C0.24168247 19.24946814 -1.56177714 19.19190322 -5.75 16.3125 C-8.25978123 12.62625882 -8.37608836 10.75761849 -7.75 6.375 C-4.80263158 0.48026316 -4.80263158 0.48026316 0 0 Z " fill="#3285E2" transform="translate(201.75,312.625)"/>
<path d="M0 0 C2.36293002 1.15632746 4.14983755 2.14983755 6 4 C6.40038554 8.16400962 6.44184328 10.32250696 4.125 13.875 C1.4126761 16.5873239 0.53758847 16.93914093 -3.3125 17.375 C-7 17 -7 17 -9.9375 15 C-12.79117716 10.84919686 -12.7099846 8.9698922 -12 4 C-9.16846151 -0.71923082 -5.09263773 -0.86898183 0 0 Z " fill="#3284E0" transform="translate(335,184)"/>
<path d="M0 0 C3.375 2 3.375 2 6 5 C6.92204838 8.78564577 6.55456505 11.97009349 4.6875 15.4375 C1.53527468 18.35622715 -2.04166738 18.35209864 -6.125 18.26953125 C-8 18 -8 18 -10 16.5 C-11.4094215 12.97644626 -11.55910621 9.70775695 -11 6 C-8.40908757 0.4648689 -6.08175985 -0.70174152 0 0 Z " fill="#3283DF" transform="translate(76,183)"/>
<path d="M0 0 C2.9375 2.0625 2.9375 2.0625 5 5 C5.48259887 8.49884179 5.63513623 10.76942356 4 13.9375 C0.76023815 15.65862348 -2.46594988 15.49064277 -6 15 C-8.5 14.0625 -8.5 14.0625 -10 12 C-10.49696302 8.9325386 -10.61371932 6.05200961 -10 3 C-7.17103682 -0.76075817 -4.5456063 -0.62698018 0 0 Z " fill="#2E7BD2" transform="translate(81,149)"/>
<path d="M0 0 C2.875 1.5625 2.875 1.5625 5 4 C5.3125 7.75 5.3125 7.75 5 11 C4.34 11 3.68 11 3 11 C2.67 11.99 2.34 12.98 2 14 C-0.80915474 15.40457737 -2.88810534 15.24895157 -6 15 C-8.375 14.0625 -8.375 14.0625 -10 12 C-10.56536134 8.90205063 -10.56536134 6.09794937 -10 3 C-7.25336657 -0.48611166 -4.24872854 -0.60696122 0 0 Z " fill="#3081DA" transform="translate(239,60)"/>
<path d="M0 0 C2.875 1.5625 2.875 1.5625 5 4 C5.625 7.5 5.625 7.5 5 11 C2.40973731 13.97118368 0.83940315 14.88008526 -3.0625 15.4375 C-6.44273423 14.93406086 -7.83222115 14.66803551 -10 12 C-10.5659239 7.54334931 -10.82483134 5.26897129 -8.375 1.5 C-5.25991849 -0.4674199 -3.62829011 -0.5923739 0 0 Z " fill="#3080D8" transform="translate(329,221)"/>
<path d="M0 0 C3 1.5 3 1.5 5 4 C5.38606508 6.90718703 5.04841359 9.26601538 4 12 C1.1864548 14.65277119 -0.27248596 15.01455028 -4.125 14.9375 C-7 14 -7 14 -8.875 12.375 C-10.44081436 9.0693919 -10.39385329 6.61032183 -10 3 C-7.7736336 -1.05984462 -4.20623109 -0.50764858 0 0 Z " fill="#4BADBE" transform="translate(231,287)"/>
<path d="M0 0 C2.47342266 3.71013399 2.38503486 5.61060262 2 10 C0.9375 12.4375 0.9375 12.4375 -1 14 C-4.375 14.5625 -4.375 14.5625 -8 14 C-11.41521211 11.52942103 -12.77785768 10.08849737 -13.625 5.9375 C-13 3 -13 3 -11 0.5625 C-6.74222038 -1.65509355 -4.63543613 -1.13986134 0 0 Z " fill="#4FB5C4" transform="translate(106,211)"/>
<path d="M0 0 C2.375 1 2.375 1 4 3 C4.5659239 7.45665069 4.82483134 9.73102871 2.375 13.5 C-0.74326051 15.46942769 -2.37720527 15.67927401 -6 15 C-9.18983563 12.22987959 -9.9214435 10.56953461 -10.5 6.375 C-10 3 -10 3 -8.375 1.0625 C-5.32437685 -0.30225246 -3.31256176 -0.41407022 0 0 Z " fill="#3183DE" transform="translate(169,309)"/>
<path d="M0 0 C2.9375 1.5625 2.9375 1.5625 5 4 C5.625 7.5625 5.625 7.5625 5 11 C2.34187507 13.42358449 0.47970665 13.93147048 -3.0625 14.4375 C-6 14 -6 14 -8.375 12.4375 C-10.5996142 9.1005787 -10.50030235 6.93094707 -10 3 C-7.7736336 -1.05984462 -4.20623109 -0.50764858 0 0 Z " fill="#4CAEBE" transform="translate(307,160)"/>
<path d="M0 0 C2.4375 1.0625 2.4375 1.0625 4 3 C4.46268457 6.63537875 4.40708036 9.06610977 2.9375 12.4375 C1 14 1 14 -2.4375 14.5 C-6 14 -6 14 -8.4375 12.4375 C-10.58016848 9.09493717 -10.49573337 6.89504791 -10 3 C-7.77455145 -1.05817089 -4.20489208 -0.44262022 0 0 Z " fill="#51B9C8" transform="translate(180,84)"/>
<path d="M0 0 C1.52150158 3.04300316 1.23899393 5.654085 1 9 C-2.46923881 11.31282587 -3.92205575 11.42478586 -8 11 C-9.875 9.875 -9.875 9.875 -11 8 C-11.4375 5 -11.4375 5 -11 2 C-7.82359521 -1.93874195 -4.59147615 -1.12621113 0 0 Z " fill="#49A8B8" transform="translate(312,191)"/>
<path d="M0 0 C2.31282587 3.46923881 2.42478586 4.92205575 2 9 C0.9375 10.9375 0.9375 10.9375 -1 12 C-7.33333333 11.66666667 -7.33333333 11.66666667 -10 9 C-10.3267107 5.92891945 -10.48138276 3.84949899 -8.9375 1.125 C-5.90185629 -0.63763183 -3.42201828 -0.37331109 0 0 Z " fill="#4AA9BA" transform="translate(102,182)"/>
<path d="M0 0 C3.47552338 0.34755234 4.83993243 0.67588358 7.125 3.3125 C7.625 6.3125 7.625 6.3125 7.125 9.3125 C4.85134905 11.93594341 3.44964203 12.27354296 0 12.6875 C-1.423125 12.501875 -1.423125 12.501875 -2.875 12.3125 C-5.32397847 8.63903229 -5.19037716 6.64893601 -4.875 2.3125 C-2.875 0.3125 -2.875 0.3125 0 0 Z " fill="#4EB2C1" transform="translate(203.875,81.6875)"/>
<path d="M0 0 C0.99 0.66 1.98 1.32 3 2 C3.4375 5.4375 3.4375 5.4375 3 9 C1.3125 11 1.3125 11 -1 12 C-3.85343764 11.86080792 -5.46462886 11.36922147 -7.8125 9.75 C-9.45364719 7.3314673 -9.42967368 5.86449123 -9 3 C-6.72678821 -0.66239677 -4.03980218 -0.42081273 0 0 Z " fill="#3181DA" transform="translate(270,75)"/>
<path d="M0 0 C2.9375 0.75 2.9375 0.75 4.9375 2.75 C5.26765665 5.85347254 5.44281294 7.90781176 3.8125 10.625 C1.05659116 12.27854531 -0.91325452 12.14365568 -4.0625 11.75 C-6 10.6875 -6 10.6875 -7.0625 8.75 C-6.9375 5.1875 -6.9375 5.1875 -6.0625 1.75 C-3.0625 -0.25 -3.0625 -0.25 0 0 Z " fill="#61D5AB" transform="translate(243.0625,261.25)"/>
<path d="M0 0 C0.99 0.66 1.98 1.32 3 2 C3.3125 5.5 3.3125 5.5 3 9 C1 11 1 11 -2.4375 11.3125 C-6 11 -6 11 -7.9375 9.8125 C-9.38718434 7.33950907 -9.42317323 5.82115488 -9 3 C-6.72678821 -0.66239677 -4.03980218 -0.42081273 0 0 Z " fill="#60D3A9" transform="translate(280,147)"/>
<path d="M0 0 C3.375 0.6875 3.375 0.6875 4.375 1.6875 C4.8376087 7.93271739 4.8376087 7.93271739 3.1875 10.625 C0.7398354 12.05983787 -0.82976326 12.03690459 -3.625 11.6875 C-6.625 9.6875 -6.625 9.6875 -7.0234375 7.8125 C-7.01570312 7.11125 -7.00796875 6.41 -7 5.6875 C-7.00773438 4.98625 -7.01546875 4.285 -7.0234375 3.5625 C-6.1689593 -0.45857388 -3.54006395 -0.30517793 0 0 Z " fill="#61D5AB" transform="translate(163.625,112.3125)"/>
<path d="M0 0 C0.99 0.66 1.98 1.32 3 2 C3.3734761 5.42353094 3.57873868 7.91060954 1.9375 11 C-1.19241926 12.6154422 -3.68174093 11.79884015 -7 11 C-8.52150158 7.95699684 -8.23899393 5.345915 -8 2 C-4.75366476 -0.1642235 -3.75698557 -0.37569856 0 0 Z " fill="#4EB2C2" transform="translate(201,291)"/>
<path d="M0 0 C1.8125 1.0625 1.8125 1.0625 3 3 C3.375 6.5625 3.375 6.5625 3 10 C-0.23253796 12.15502531 -1.25150923 12.46856135 -5 12 C-6.8125 10.875 -6.8125 10.875 -8 9 C-8.39769128 5.81846974 -8.55198782 3.87155972 -6.8125 1.125 C-4.34492892 -0.40659584 -2.85480169 -0.42822025 0 0 Z " fill="#62D8AD" transform="translate(130,226)"/>
<path d="M0 0 C2 2 2 2 2.25 5.5 C2 9 2 9 0 11 C-3.5 11.3125 -3.5 11.3125 -7 11 C-9.30019361 7.54970958 -9.43132515 6.05445642 -9 2 C-5.54754176 -0.30163882 -4.05261287 -0.34490322 0 0 Z " fill="#3080DA" transform="translate(136,296)"/>
<path d="M0 0 C0.99 0.66 1.98 1.32 3 2 C3.3125 5.5 3.3125 5.5 3 9 C1 11 1 11 -2.5 11.25 C-6 11 -6 11 -8 9 C-8.3125 5.5 -8.3125 5.5 -8 2 C-4.75366476 -0.1642235 -3.75698557 -0.37569856 0 0 Z " fill="#3183DC" transform="translate(314,256)"/>
<path d="M0 0 C3.5 0.25 3.5 0.25 5.5 2.25 C5.75 5.25 5.75 5.25 5.5 8.25 C3.5 10.25 3.5 10.25 0 10.5 C-3.5 10.25 -3.5 10.25 -5.5 8.25 C-5.75 5.25 -5.75 5.25 -5.5 2.25 C-3.5 0.25 -3.5 0.25 0 0 Z " fill="#3183DE" transform="translate(93.5,117.75)"/>
<path d="M0 0 C5.45454545 0.45454545 5.45454545 0.45454545 8 3 C7.8125 5.5 7.8125 5.5 7 8 C4 10 4 10 1.4375 9.75 C-1 9 -1 9 -3 7 C-2.67028521 3.70285207 -2.3773161 2.3773161 0 0 Z " fill="#48A7B7" transform="translate(229,87)"/>
<path d="M0 0 C5.5952381 0.5952381 5.5952381 0.5952381 8 3 C7.67028521 6.29714793 7.3773161 7.6226839 5 10 C2.5 10.25 2.5 10.25 0 10 C-0.66 9.34 -1.32 8.68 -2 8 C-1.42307692 1.42307692 -1.42307692 1.42307692 0 0 Z " fill="#60D2A9" transform="translate(181,105)"/>
<path d="M0 0 C3 0.25 3 0.25 5 2.25 C5.25 4.75 5.25 4.75 5 7.25 C3 9.25 3 9.25 0 9.5 C-3 9.25 -3 9.25 -5 7.25 C-5.25 4.75 -5.25 4.75 -5 2.25 C-3 0.25 -3 0.25 0 0 Z " fill="#60D2AA" transform="translate(220,270.75)"/>
<path d="M0 0 C1.134375 0.020625 2.26875 0.04125 3.4375 0.0625 C4.79189668 2.77129335 4.50251451 5.07183268 4.4375 8.0625 C-1.97444487 9.39328101 -1.97444487 9.39328101 -4.5625 7.9375 C-5.5625 6.0625 -5.5625 6.0625 -5.3125 3.4375 C-4.13833415 -0.28069186 -4.1698646 0.07315552 0 0 Z " fill="#45A0B1" transform="translate(103.5625,154.9375)"/>
<path d="M0 0 C2.5625 0.25 2.5625 0.25 5.5625 2.25 C5.875 4.75 5.875 4.75 5.5625 7.25 C3.5625 9.25 3.5625 9.25 0.5625 9.5 C-2.4375 9.25 -2.4375 9.25 -4.4375 7.25 C-4.6875 4.75 -4.6875 4.75 -4.4375 2.25 C-2.4375 0.25 -2.4375 0.25 0 0 Z " fill="#47A4B4" transform="translate(301.4375,220.75)"/>
<path d="M0 0 C2 2 2 2 2.3125 4.5 C2.1578125 5.7375 2.1578125 5.7375 2 7 C-1.22373677 9.14915785 -2.26703674 9.38286803 -6 9 C-8 7 -8 7 -8.125 3.875 C-8.08375 2.92625 -8.0425 1.9775 -8 1 C-5.03104944 0.01034981 -3.0913386 -0.23779528 0 0 Z " fill="#5DCCA5" transform="translate(289,171)"/>
<path d="M0 0 C3.0625 0.1875 3.0625 0.1875 5.0625 2.1875 C4.73278521 5.48464793 4.4398161 6.8101839 2.0625 9.1875 C-1.23464793 8.85778521 -2.5601839 8.5648161 -4.9375 6.1875 C-4.21574268 0.26908996 -4.21574268 0.26908996 0 0 Z " fill="#2D78CC" transform="translate(293.9375,96.8125)"/>
<path d="M0 0 C2.875 -0.125 2.875 -0.125 6 0 C8 2 8 2 8.125 5.125 C8.08375 6.07375 8.0425 7.0225 8 8 C4.625 8.625 4.625 8.625 1 9 C0.34 8.34 -0.32 7.68 -1 7 C-0.625 3.375 -0.625 3.375 0 0 Z " fill="#61D5AC" transform="translate(116,205)"/>
<path d="M0 0 C2.61580479 0.3269756 4.64078137 0.82039068 7 2 C7.125 4.375 7.125 4.375 7 7 C5 9 5 9 2.5 9.25 C0 9 0 9 -2 7 C-2.25 4.5 -2.25 4.5 -2 2 C-1.34 1.34 -0.68 0.68 0 0 Z " fill="#4CAEBE" transform="translate(167,287)"/>
<path d="M0 0 C3 0.125 3 0.125 4 1.125 C4.1875 3.5625 4.1875 3.5625 4 6.125 C3.34 6.785 2.68 7.445 2 8.125 C-2.55555556 7.56944444 -2.55555556 7.56944444 -4 6.125 C-4.125 3.625 -4.125 3.625 -4 1.125 C-3 0.125 -3 0.125 0 0 Z " fill="#2E7BD2" transform="translate(288,285.875)"/>
<path d="M0 0 C3 0.125 3 0.125 4 1.125 C4.1875 3.5625 4.1875 3.5625 4 6.125 C3.34 6.785 2.68 7.445 2 8.125 C-2.55555556 7.56944444 -2.55555556 7.56944444 -4 6.125 C-4.125 3.625 -4.125 3.625 -4 1.125 C-3 0.125 -3 0.125 0 0 Z " fill="#2E7BD2" transform="translate(105,273.875)"/>
<path d="M0 0 C4.55555556 0.55555556 4.55555556 0.55555556 6 2 C6.125 4.5 6.125 4.5 6 7 C5 8 5 8 2 8.125 C-1 8 -1 8 -2 7 C-2.1875 4.5625 -2.1875 4.5625 -2 2 C-1.34 1.34 -0.68 0.68 0 0 Z " fill="#2E7AD0" transform="translate(115,91)"/>
<path d="M0 0 C1 1 1 1 1.0625 3.5625 C1.041875 4.366875 1.02125 5.17125 1 6 C-1.875 6.625 -1.875 6.625 -5 7 C-7 5 -7 5 -7.125 2.375 C-7.08375 1.59125 -7.0425 0.8075 -7 0 C-4.31633121 -1.3418344 -2.84719317 -0.73004953 0 0 Z " fill="#53B898" transform="translate(121,183)"/>
<path d="M0 0 C2.625 0.375 2.625 0.375 5 1 C5.33 2.65 5.66 4.3 6 6 C3 8 3 8 0.8125 7.625 C0.214375 7.41875 -0.38375 7.2125 -1 7 C-1.625 4.625 -1.625 4.625 -2 2 C-1.34 1.34 -0.68 0.68 0 0 Z " fill="#59C6A1" transform="translate(194,273)"/>
<path d="M0 0 C1.4540625 0.0309375 1.4540625 0.0309375 2.9375 0.0625 C3.5625 2.4375 3.5625 2.4375 3.9375 5.0625 C3.2775 5.7225 2.6175 6.3825 1.9375 7.0625 C-0.6875 6.6875 -0.6875 6.6875 -3.0625 6.0625 C-3.44468767 4.40635343 -3.77645102 2.73792976 -4.0625 1.0625 C-3.0625 0.0625 -3.0625 0.0625 0 0 Z " fill="#58C29E" transform="translate(287.0625,195.9375)"/>
<path d="M0 0 C2.00720923 0.28674418 4.0085944 0.61866701 6 1 C6.125 3.375 6.125 3.375 6 6 C5.34 6.66 4.68 7.32 4 8 C0.46428571 7.46428571 0.46428571 7.46428571 -1 6 C-1.125 3.5 -1.125 3.5 -1 1 C-0.67 0.67 -0.34 0.34 0 0 Z " fill="#61D5AB" transform="translate(203,104)"/>
<path d="M0 0 C0.38218767 1.65614657 0.71395102 3.32457024 1 5 C0 6 0 6 -2.5 6.125 C-5 6 -5 6 -6 5 C-6.04063832 3.33382885 -6.042721 1.66611905 -6 0 C-3.50907189 -1.24546405 -2.58919267 -0.7767578 0 0 Z " fill="#48A7B7" transform="translate(259,100)"/>
<path d="M0 0 C1.2065625 0.0309375 1.2065625 0.0309375 2.4375 0.0625 C2.81968767 1.71864657 3.15145102 3.38707024 3.4375 5.0625 C2.4375 6.0625 2.4375 6.0625 -0.125 6.125 C-1.3315625 6.0940625 -1.3315625 6.0940625 -2.5625 6.0625 C-2.94468767 4.40635343 -3.27645102 2.73792976 -3.5625 1.0625 C-2.5625 0.0625 -2.5625 0.0625 0 0 Z " fill="#46A1B1" transform="translate(288.5625,248.9375)"/>
<path d="M0 0 C1.2065625 0.0309375 1.2065625 0.0309375 2.4375 0.0625 C2.81968767 1.71864657 3.15145102 3.38707024 3.4375 5.0625 C2.4375 6.0625 2.4375 6.0625 -0.125 6.125 C-1.3315625 6.0940625 -1.3315625 6.0940625 -2.5625 6.0625 C-2.94468767 4.40635343 -3.27645102 2.73792976 -3.5625 1.0625 C-2.5625 0.0625 -2.5625 0.0625 0 0 Z " fill="#449FB0" transform="translate(116.5625,129.9375)"/>
<path d="M0 0 C1.67542976 0.28604898 3.34385343 0.61781233 5 1 C5 2.65 5 4.3 5 6 C3.34385343 6.38218767 1.67542976 6.71395102 0 7 C-1 6 -1 6 -1.125 3.5 C-1 1 -1 1 0 0 Z " fill="#47A3B4" transform="translate(141,275)"/>
<path d="M0 0 C1.2065625 0.0309375 1.2065625 0.0309375 2.4375 0.0625 C2.4375 2.0425 2.4375 4.0225 2.4375 6.0625 C0.4575 6.0625 -1.5225 6.0625 -3.5625 6.0625 C-3.605221 4.39638095 -3.60313832 2.72867115 -3.5625 1.0625 C-2.5625 0.0625 -2.5625 0.0625 0 0 Z " fill="#286CB9" transform="translate(315.5625,124.9375)"/>
<path d="M0 0 C-0.78375 0.61875 -1.5675 1.2375 -2.375 1.875 C-6.1177024 4.9048067 -7.25325185 6.27059507 -8 11 C-8.66 10.67 -9.32 10.34 -10 10 C-10.3125 7.25 -10.3125 7.25 -10 4 C-6.84563621 0.57526217 -4.63891191 -0.53016136 0 0 Z " fill="#36819A" transform="translate(103,210)"/>
<path d="M0 0 C1.2065625 0.0309375 1.2065625 0.0309375 2.4375 0.0625 C2.4375 1.7125 2.4375 3.3625 2.4375 5.0625 C0.7875 5.0625 -0.8625 5.0625 -2.5625 5.0625 C-3.125 3.125 -3.125 3.125 -3.5625 1.0625 C-2.5625 0.0625 -2.5625 0.0625 0 0 Z " fill="#4EAD91" transform="translate(123.5625,159.9375)"/>
<path d="M0 0 C1.65 0.33 3.3 0.66 5 1 C4.67 2.32 4.34 3.64 4 5 C2.35 4.67 0.7 4.34 -1 4 C-0.67 2.68 -0.34 1.36 0 0 Z " fill="#53B898" transform="translate(280,220)"/>
<path d="M0 0 C1.65 0 3.3 0 5 0 C4.67 1.65 4.34 3.3 4 5 C2.68 5 1.36 5 0 5 C0 3.35 0 1.7 0 0 Z " fill="#5FD1A8" transform="translate(225,109)"/>
<path d="M0 0 C2.475 0.495 2.475 0.495 5 1 C4.67 2.32 4.34 3.64 4 5 C2.68 5 1.36 5 0 5 C0 3.35 0 1.7 0 0 Z " fill="#286DBA" transform="translate(255,307)"/>
<path d="M0 0 C1.98 0.495 1.98 0.495 4 1 C4 2.32 4 3.64 4 5 C2.35 5 0.7 5 -1 5 C-0.67 3.35 -0.34 1.7 0 0 Z " fill="#5BC9A3" transform="translate(171,269)"/>
<path d="M0 0 C1.98 0.495 1.98 0.495 4 1 C4 2.32 4 3.64 4 5 C2.35 4.67 0.7 4.34 -1 4 C-0.67 2.68 -0.34 1.36 0 0 Z " fill="#3C8D9E" transform="translate(276,117)"/>
<path d="M0 0 C1.32 0 2.64 0 4 0 C3.67 1.65 3.34 3.3 3 5 C1.68 4.67 0.36 4.34 -1 4 C-0.67 2.68 -0.34 1.36 0 0 Z " fill="#2A71C1" transform="translate(146,73)"/>
<path d="M0 0 C1.65 0 3.3 0 5 0 C5 1.32 5 2.64 5 4 C3.35 4 1.7 4 0 4 C0 2.68 0 1.36 0 0 Z " fill="#2A72C2" transform="translate(83,245)"/>
<path d="M0 0 C0.99 0.33 1.98 0.66 3 1 C2.360625 1.556875 1.72125 2.11375 1.0625 2.6875 C-1.19680987 5.22066561 -1.63149047 6.68341424 -2 10 C-2.33 10 -2.66 10 -3 10 C-3.36923077 3.47692308 -3.36923077 3.47692308 -1.5 1.0625 C-1.005 0.711875 -0.51 0.36125 0 0 Z " fill="#3D91AD" transform="translate(173,84)"/>
<path d="M0 0 C1.32 0 2.64 0 4 0 C4 1.32 4 2.64 4 4 C2.35 3.67 0.7 3.34 -1 3 C-0.67 2.01 -0.34 1.02 0 0 Z " fill="#3A8799" transform="translate(267,272)"/>
</svg>
